<?xml version="1.0" standalone="no"?>
<!DOCTYPE svg PUBLIC "-//W3C//DTD SVG 20010904//EN"
 "http://www.w3.org/TR/2001/REC-SVG-20010904/DTD/svg10.dtd">
<svg version="1.0" xmlns="http://www.w3.org/2000/svg"
 width="246.000000pt" height="246.000000pt" viewBox="0 0 246.000000 246.000000"
 preserveAspectRatio="xMidYMid meet">
<metadata>
Created by potrace 1.11, written by Peter Selinger 2001-2013
</metadata>
<g transform="translate(0.000000,246.000000) scale(0.100000,-0.100000)"
fill="#000000" stroke="none">
<path d="M0 1230 l0 -1230 1230 0 1230 0 0 1230 0 1230 -1230 0 -1230 0 0
-1230z m1832 604 c142 -101 206 -160 214 -199 8 -43 -5 -65 -91 -155 -230
-243 -432 -498 -599 -759 -91 -142 -108 -160 -144 -161 -35 0 -57 15 -106 76
l-46 55 25 50 c22 43 44 63 45 42 1 -5 18 -27 38 -51 l38 -43 49 78 c139 220
338 478 548 711 71 79 128 144 126 146 -2 1 -53 40 -113 86 -90 69 -111 80
-120 69 -6 -8 -47 -60 -92 -114 -242 -301 -455 -627 -619 -955 -69 -137 -88
-160 -129 -160 -39 1 -52 11 -106 85 -69 94 -166 212 -255 310 -110 121 -120
142 -93 200 13 28 186 173 240 201 26 13 38 14 69 5 32 -10 55 -33 139 -137
55 -70 100 -133 100 -141 0 -16 -42 -93 -51 -93 -3 0 -51 58 -108 130 -56 72
-105 130 -109 130 -13 0 -173 -132 -170 -140 2 -5 49 -62 104 -127 56 -65 131
-156 167 -201 l66 -84 37 74 c115 228 286 506 455 739 135 185 293 377 322
389 40 17 86 2 169 -56z"/>
</g>
</svg>
